<svg width="31" height="31" viewBox="0 0 31 31" fill="none" xmlns="http://www.w3.org/2000/svg">
<path d="M21.9444 15.5L15.5 9.05556M15.5 9.05556L9.05556 15.5M15.5 9.05556V21.9444M8.73333 30H22.2667C24.9736 30 26.327 30 27.361 29.4732C28.2704 29.0098 29.0098 28.2704 29.4732 27.361C30 26.327 30 24.9736 30 22.2667V8.73333C30 6.02641 30 4.67295 29.4732 3.63905C29.0098 2.7296 28.2704 1.99019 27.361 1.5268C26.327 1 24.9736 1 22.2667 1H8.73333C6.02641 1 4.67295 1 3.63905 1.5268C2.7296 1.99019 1.99019 2.7296 1.5268 3.63905C1 4.67295 1 6.02641 1 8.73333V22.2667C1 24.9736 1 26.327 1.5268 27.361C1.99019 28.2704 2.7296 29.0098 3.63905 29.4732C4.67295 30 6.02641 30 8.73333 30Z" stroke="" stroke-width="2" stroke-linecap="round" stroke-linejoin="round"/>
</svg>
