<svg width="13" height="13" viewBox="0 0 13 13" fill="none" xmlns="http://www.w3.org/2000/svg">
<path fill-rule="evenodd" clip-rule="evenodd" d="M6.07812 0.5C9.37813 0.5 12.0781 3.2 12.0781 6.5C12.0781 9.8 9.37813 12.5 6.07812 12.5C2.77813 12.5 0.078125 9.8 0.078125 6.5C0.078125 3.2 2.77813 0.5 6.07812 0.5ZM7.37813 8.5H4.77812C5.02812 9.75 5.47813 10.55 6.07812 11.35C6.67812 10.5 7.07812 9.65 7.37813 8.5ZM3.77813 8.5H1.47812C2.07812 9.9 3.32813 11 4.87813 11.35C4.32812 10.5 3.97813 9.55 3.77813 8.5ZM10.6781 8.5H8.37813C8.17813 9.5 7.82812 10.45 7.27812 11.35C8.77812 10.95 10.0281 9.9 10.6781 8.5ZM3.67812 5.5H1.17813C1.02813 6.15 1.02813 6.85 1.17813 7.5H3.62812C3.57812 6.85 3.57812 6.15 3.67812 5.5ZM7.47813 5.5H4.67812C4.57812 6.15 4.57812 6.85 4.62813 7.5H7.52812C7.57812 6.85 7.57812 6.15 7.47813 5.5ZM10.9781 5.5H8.47812C8.52812 6.15 8.57812 6.85 8.47812 7.5H10.9281C11.1281 6.85 11.1281 6.2 10.9781 5.5ZM4.87813 1.65C3.37813 2 2.12812 3.1 1.47812 4.5H3.82812C4.02813 3.5 4.42813 2.5 4.87813 1.65ZM6.07812 1.6C5.52812 2.5 5.12813 3.35 4.82812 4.5H7.27812C7.02812 3.4 6.62813 2.55 6.07812 1.6ZM7.27812 1.65C7.77812 2.55 8.12813 3.55 8.32812 4.5H10.6781C10.0281 3.1 8.77812 2 7.27812 1.65Z" fill="white"/>
</svg>
