<svg width="26" height="26" viewBox="0 0 26 26" fill="none" xmlns="http://www.w3.org/2000/svg">
<path fill-rule="evenodd" clip-rule="evenodd" d="M13 0C5.8203 0 0 5.8203 0 13C0 20.1797 5.8203 26 13 26C20.1797 26 26 20.1797 26 13C26 5.8203 20.1797 0 13 0ZM8.07362 5.63335H18.3597C19.2271 5.63335 19.9333 6.33101 19.9333 7.19551V20.8L18.283 19.3592L17.3541 18.5098L16.3716 17.6074L16.7784 19.0103H8.07362C7.20621 19.0103 6.5 18.3127 6.5 17.4482V7.19551C6.5 6.33101 7.20621 5.63335 8.07362 5.63335Z" fill=""/>
<path fill-rule="evenodd" clip-rule="evenodd" d="M15.3967 15.5372C15.3967 15.5372 15.1204 15.2111 14.8901 14.9229C15.8957 14.6423 16.2795 14.0205 16.2795 14.0205C15.9648 14.2253 15.6654 14.3693 15.3967 14.4679C15.0129 14.6272 14.6445 14.7333 14.2837 14.794C13.5468 14.9305 12.8713 14.8926 12.2955 14.7864C11.858 14.703 11.4819 14.5817 11.1671 14.4603C10.9906 14.3921 10.7987 14.3087 10.6068 14.2025C10.5953 14.1949 10.5838 14.1892 10.5722 14.1836C10.5607 14.1779 10.5492 14.1722 10.5377 14.1646C10.5223 14.157 10.5147 14.1494 10.507 14.1418C10.3688 14.066 10.2921 14.0129 10.2921 14.0129C10.2921 14.0129 10.6605 14.6196 11.6354 14.9078C11.4051 15.1959 11.1211 15.5372 11.1211 15.5372C9.42465 15.4841 8.77985 14.3845 8.77985 14.3845C8.77985 11.9427 9.88522 9.96343 9.88522 9.96343C10.9906 9.14443 12.0422 9.16718 12.0422 9.16718L12.119 9.25818C10.7373 9.65251 10.1002 10.2516 10.1002 10.2516C10.1002 10.2516 10.269 10.1606 10.553 10.0317C11.3744 9.67526 12.0269 9.57668 12.2955 9.55393L12.3128 9.55105C12.3515 9.54454 12.3858 9.53876 12.426 9.53876C12.8943 9.47809 13.4239 9.46293 13.9766 9.52359C14.7059 9.60701 15.4888 9.81934 16.2872 10.2516C16.2872 10.2516 15.6807 9.68284 14.3758 9.28851L14.4833 9.16718C14.4833 9.16718 15.5349 9.14443 16.6403 9.96343C16.6403 9.96343 17.7456 11.9427 17.7456 14.3845C17.7456 14.3845 17.0932 15.4841 15.3967 15.5372ZM12.0435 12.1333C11.6094 12.1333 11.2667 12.5237 11.2667 12.9999C11.2667 13.4762 11.617 13.8666 12.0435 13.8666C12.4776 13.8666 12.8203 13.4762 12.8203 12.9999C12.8279 12.5237 12.4776 12.1333 12.0435 12.1333ZM14.0464 12.9999C14.0464 12.5237 14.3891 12.1333 14.8232 12.1333C15.2573 12.1333 15.6 12.5237 15.6 12.9999C15.6 13.4762 15.2573 13.8666 14.8232 13.8666C14.3967 13.8666 14.0464 13.4762 14.0464 12.9999Z" fill=""/>
</svg>
