<svg width="26" height="26" viewBox="0 0 26 26" fill="none" xmlns="http://www.w3.org/2000/svg">
<path fill-rule="evenodd" clip-rule="evenodd" d="M13 0C5.8203 0 0 5.8203 0 13C0 20.1797 5.8203 26 13 26C20.1797 26 26 20.1797 26 13C26 5.8203 20.1797 0 13 0ZM10.1418 6.10854C10.8813 6.07488 11.1177 6.06665 13.0007 6.06665H12.9985C14.8821 6.06665 15.1175 6.07488 15.8571 6.10854C16.5952 6.14234 17.0993 6.2592 17.5413 6.43065C17.9978 6.6076 18.3834 6.84449 18.7691 7.23016C19.1548 7.61554 19.3917 8.00237 19.5693 8.45839C19.7398 8.89924 19.8568 9.40306 19.8914 10.1412C19.9247 10.8807 19.9333 11.1171 19.9333 13.0001C19.9333 14.8831 19.9247 15.1188 19.8914 15.8584C19.8568 16.5962 19.7398 17.1002 19.5693 17.5411C19.3917 17.997 19.1548 18.3838 18.7691 18.7692C18.3839 19.1549 17.9976 19.3924 17.5417 19.5695C17.1006 19.7409 16.5962 19.8578 15.8581 19.8916C15.1185 19.9252 14.8829 19.9335 12.9998 19.9335C11.1169 19.9335 10.8808 19.9252 10.1412 19.8916C9.40322 19.8578 8.89925 19.7409 8.45811 19.5695C8.00239 19.3924 7.61556 19.1549 7.23032 18.7692C6.8448 18.3838 6.60791 17.997 6.43067 17.541C6.25936 17.1002 6.1425 16.5963 6.10856 15.8582C6.07505 15.1186 6.06667 14.8831 6.06667 13.0001C6.06667 11.1171 6.07533 10.8806 6.10841 10.141C6.14163 9.40321 6.25864 8.89924 6.43053 8.45824C6.60819 8.00237 6.84509 7.61554 7.23076 7.23016C7.61614 6.84464 8.00296 6.60775 8.45898 6.43065C8.89983 6.2592 9.40366 6.14234 10.1418 6.10854Z" fill=""/>
<path fill-rule="evenodd" clip-rule="evenodd" d="M12.3787 7.31594C12.4994 7.31575 12.6294 7.31581 12.7696 7.31587L13.0007 7.31594C14.8519 7.31594 15.0713 7.32259 15.8023 7.35581C16.4783 7.38672 16.8452 7.49968 17.0896 7.59458C17.4132 7.72025 17.6439 7.87047 17.8864 8.11314C18.1291 8.35581 18.2793 8.58692 18.4052 8.91048C18.5001 9.15459 18.6133 9.52149 18.644 10.1975C18.6772 10.9284 18.6845 11.1479 18.6845 12.9983C18.6845 14.8487 18.6772 15.0682 18.644 15.7991C18.6131 16.4751 18.5001 16.842 18.4052 17.0861C18.2796 17.4097 18.1291 17.6401 17.8864 17.8826C17.6437 18.1253 17.4133 18.2755 17.0896 18.4012C16.8455 18.4965 16.4783 18.6092 15.8023 18.6401C15.0714 18.6733 14.8519 18.6805 13.0007 18.6805C11.1493 18.6805 10.9299 18.6733 10.199 18.6401C9.52298 18.6089 9.15609 18.4959 8.91154 18.401C8.58798 18.2753 8.35687 18.1251 8.1142 17.8825C7.87153 17.6398 7.7213 17.4092 7.59535 17.0855C7.50045 16.8414 7.38735 16.4745 7.35658 15.7985C7.32336 15.0676 7.31671 14.8481 7.31671 12.9966C7.31671 11.1451 7.32336 10.9267 7.35658 10.1958C7.38749 9.51975 7.50045 9.15286 7.59535 8.90846C7.72102 8.5849 7.87153 8.35379 8.1142 8.11112C8.35687 7.86845 8.58798 7.71822 8.91154 7.59227C9.15594 7.49693 9.52298 7.38427 10.199 7.35321C10.8386 7.32432 11.0865 7.31565 12.3787 7.31421V7.31594ZM16.7017 8.46733C16.2423 8.46733 15.8696 8.83957 15.8696 9.29905C15.8696 9.75839 16.2423 10.1311 16.7017 10.1311C17.161 10.1311 17.5337 9.75839 17.5337 9.29905C17.5337 8.83971 17.161 8.46704 16.7017 8.46704V8.46733ZM9.44007 13C9.44007 11.0338 11.0342 9.43953 13.0005 9.43945C14.9669 9.43945 16.5607 11.0337 16.5607 13C16.5607 14.9664 14.967 16.5599 13.0007 16.5599C11.0343 16.5599 9.44007 14.9664 9.44007 13Z" fill="#000"/>
<path d="M13.0006 10.689C14.277 10.689 15.3118 11.7236 15.3118 13.0001C15.3118 14.2764 14.277 15.3112 13.0006 15.3112C11.7242 15.3112 10.6895 14.2764 10.6895 13.0001C10.6895 11.7236 11.7242 10.689 13.0006 10.689Z" fill="#000"/>
</svg>
