<svg width="10" height="22" viewBox="0 0 10 22" fill="none" xmlns="http://www.w3.org/2000/svg">
<path fill-rule="evenodd" clip-rule="evenodd" d="M0.0296698 3.43628C0.0296698 3.43628 2.18567 4.14815 2.18567 5.3859C2.18567 6.62365 2.18155 18.3583 2.18155 19.5282C2.18155 21.024 0 21.4997 0 21.4997C0 21.4997 4.06187 21.0089 4.06187 19.5304V5.38363C4.06187 4.17946 0.0296698 3.43628 0.0296698 3.43628Z" fill="#FEFEFE"/>
<path fill-rule="evenodd" clip-rule="evenodd" d="M9.93 0.5C9.93 0.5 7.77317 1.23143 7.77317 2.50687C7.77317 3.77844 7.77729 18.2689 7.77729 19.4726C7.77729 21.0107 9.95761 21.5 9.95761 21.5C9.95761 21.5 5.89697 20.9952 5.89697 19.4745V2.50377C5.89697 1.26558 9.93 0.5 9.93 0.5Z" fill="#FEFEFE"/>
</svg>
