<svg width="26" height="26" viewBox="0 0 26 26" fill="none" xmlns="http://www.w3.org/2000/svg">
<path fill-rule="evenodd" clip-rule="evenodd" d="M13 0C5.8203 0 0 5.8203 0 13C0 20.1797 5.8203 26 13 26C20.1797 26 26 20.1797 26 13C26 5.8203 20.1797 0 13 0ZM18.4175 8.53083C19.0142 8.69456 19.4841 9.17698 19.6436 9.7896C19.9333 10.8999 19.9333 13.2166 19.9333 13.2166C19.9333 13.2166 19.9333 15.5332 19.6436 16.6436C19.4841 17.2562 19.0142 17.7387 18.4175 17.9025C17.3362 18.1999 13 18.1999 13 18.1999C13 18.1999 8.66375 18.1999 7.58239 17.9025C6.98573 17.7387 6.51583 17.2562 6.35637 16.6436C6.06667 15.5332 6.06667 13.2166 6.06667 13.2166C6.06667 13.2166 6.06667 10.8999 6.35637 9.7896C6.51583 9.17698 6.98573 8.69456 7.58239 8.53083C8.66375 8.23328 13 8.23328 13 8.23328C13 8.23328 17.3362 8.23328 18.4175 8.53083Z" fill=""/>
<path d="M11.7 15.6001V11.2667L15.1667 13.4335L11.7 15.6001Z" fill=""/>
</svg>
